<?xml version="1.0" encoding="UTF-8" standalone="no"?>
<svg width="32" height="32" viewBox="0 0 8.4666667 8.4666667" version="1.1" id="svg1477" inkscape:version="1.3.2 (091e20e, 2023-11-25)" sodipodi:docname="admin-favicon.svg" inkscape:export-filename="favicon_640px.png" inkscape:export-xdpi="1920" inkscape:export-ydpi="1920" xmlns:inkscape="http://www.inkscape.org/namespaces/inkscape" xmlns:sodipodi="http://sodipodi.sourceforge.net/DTD/sodipodi-0.dtd" xmlns="http://www.w3.org/2000/svg" xmlns:svg="http://www.w3.org/2000/svg" xmlns:rdf="http://www.w3.org/1999/02/22-rdf-syntax-ns#" xmlns:cc="http://creativecommons.org/ns#" xmlns:dc="http://purl.org/dc/elements/1.1/">
  <defs id="defs1471">
    <rect x="6.3500009" y="6.3500009" width="112.39389" height="48.549877" id="rect1059"/>
    <rect x="6.3500009" y="6.3500009" width="112.39389" height="48.549877" id="rect1463"/>
  </defs>
  <sodipodi:namedview id="base" pagecolor="#ffffff" bordercolor="#666666" borderopacity="1.0" inkscape:pageopacity="0.0" inkscape:pageshadow="2" inkscape:zoom="15.125326" inkscape:cx="5.5205421" inkscape:cy="17.850855" inkscape:document-units="px" inkscape:current-layer="layer1" inkscape:document-rotation="0" showgrid="false" units="px" inkscape:window-width="2560" inkscape:window-height="1387" inkscape:window-x="0" inkscape:window-y="25" inkscape:window-maximized="1" inkscape:showpageshadow="2" inkscape:pagecheckerboard="0" inkscape:deskcolor="#d1d1d1"/>
  <metadata id="metadata1474">
    <rdf:RDF>
      <cc:Work rdf:about="">
        <dc:format>image/svg+xml</dc:format>
        <dc:type rdf:resource="http://purl.org/dc/dcmitype/StillImage"/>
      </cc:Work>
    </rdf:RDF>
  </metadata>
  <g inkscape:label="Layer 1" inkscape:groupmode="layer" id="layer1" transform="translate(-105.83333,-105.83333)">
    <rect style="fill:#ffffff;fill-opacity:1;stroke:none;stroke-width:0;stroke-linecap:round" id="rect1356" width="8.4666662" height="8.4666662" x="105.83327" y="105.83333" rx="2.1166668" ry="2.1166668"/>
    <path id="path1044" style="fill:#047857;fill-opacity:1;stroke:none;stroke-width:0;stroke-dasharray:none;stroke-opacity:1" d="M 109.74369 106.91905 C 109.65881 106.92105 109.58111 106.9256 109.51786 106.93352 C 109.1067 106.98492 108.60788 107.18614 108.23577 107.44977 C 108.0232 107.60043 107.57031 108.04868 107.39758 108.27969 C 107.06484 108.72475 106.86112 109.09805 106.57437 109.78658 C 106.33777 110.35461 106.10241 110.79534 105.83333 111.17357 L 105.83333 111.6459 C 106.22003 111.18729 106.53942 110.63558 106.84257 109.90285 C 107.07071 109.35139 107.24773 109.0111 107.49576 108.64711 C 107.88705 108.07274 108.35076 107.65788 108.86519 107.42186 C 109.06214 107.33156 109.20658 107.28572 109.43983 107.23841 C 109.70152 107.18541 110.17754 107.1965 110.47336 107.2627 C 111.14519 107.41304 111.72517 107.73779 112.19883 108.22905 C 112.56583 108.60976 112.7926 109.05654 112.87889 109.56954 C 112.91059 109.75825 112.91395 109.82172 112.89285 109.82172 C 112.84915 109.82172 112.65647 110.04467 112.52388 110.24805 C 112.33235 110.54198 112.28074 110.58446 112.11563 110.58446 C 112.00078 110.58446 111.98127 110.57747 111.70119 110.43822 C 111.47548 110.3259 111.37759 110.28715 111.28054 110.2713 C 110.98088 110.2224 110.69763 110.35202 110.69763 110.53847 C 110.69763 110.62657 110.74247 110.68219 110.85731 110.73587 C 110.90771 110.75947 110.94878 110.7889 110.94878 110.8015 C 110.94878 110.8813 110.66219 112.00716 110.61443 112.11512 C 110.55503 112.24929 110.49326 112.32694 110.39533 112.389 C 110.23862 112.4882 110.01153 112.44109 109.83825 112.27376 C 109.70685 112.14689 109.66391 112.0353 109.61243 111.68724 C 109.58153 111.47837 109.53356 111.34741 109.44448 111.23042 C 109.34708 111.10253 109.23553 111.02518 108.91066 110.85938 C 108.59237 110.69704 108.4722 110.60236 108.42387 110.47594 C 108.38647 110.37804 108.39901 110.29994 108.47451 110.1664 C 108.54611 110.03984 108.72116 109.85271 108.80524 109.81293 C 108.92085 109.75823 109.04115 109.78107 109.2972 109.90647 C 109.61493 110.06206 109.64984 110.07471 109.79123 110.08578 C 110.14148 110.11318 110.49258 109.90685 110.65526 109.57832 C 110.71656 109.45434 110.72511 109.42033 110.73071 109.28325 L 110.73691 109.12822 L 110.68006 109.08068 C 110.63666 109.04418 110.60354 109.03262 110.54105 109.03262 C 110.43689 109.03262 110.37044 109.07377 110.25011 109.21194 C 110.19831 109.27134 110.14407 109.31994 110.12919 109.31994 C 110.11439 109.31994 110.06434 109.28879 110.01809 109.25069 C 109.86467 109.12412 109.75333 109.11179 109.49305 109.19385 C 109.30712 109.25245 109.25203 109.26039 109.26516 109.22589 C 109.27016 109.21359 109.29476 109.13419 109.32046 109.04967 C 109.34626 108.96507 109.38397 108.88045 109.40417 108.86209 C 109.44047 108.82929 109.44335 108.83008 109.57057 108.89878 C 109.68649 108.96138 109.71383 108.96884 109.82637 108.96854 C 110.11149 108.96754 110.35566 108.76026 110.35605 108.51844 C 110.35614 108.40577 110.31765 108.36909 110.19792 108.36909 C 110.02133 108.36909 110.20073 108.26131 110.40566 108.24455 C 110.51684 108.23555 110.54563 108.22644 110.57361 108.19184 C 110.61411 108.14194 110.61494 108.12413 110.58084 107.97842 C 110.54644 107.8328 110.50139 107.74833 110.416 107.66681 C 110.2612 107.51907 110.09372 107.47212 109.7194 107.47251 C 109.20631 107.47311 108.81571 107.60429 108.40062 107.91486 C 107.93946 108.25987 107.52731 108.83315 107.349 109.3773 C 107.1618 109.94853 107.1533 110.6894 107.32781 111.2392 C 107.56241 111.9784 108.08608 112.58944 108.78457 112.93884 C 109.28124 113.18725 109.77787 113.2793 110.34417 113.22823 C 110.97083 113.17153 111.55778 112.90521 112.10168 112.43034 C 112.75412 111.86061 113.15394 111.06668 113.18947 110.27027 C 113.19547 110.14692 113.20833 110.03557 113.21893 110.02222 C 113.24403 109.99092 113.37944 110.00761 113.49229 110.05581 C 113.59159 110.09831 113.67995 110.15699 113.94911 110.36019 C 114.06571 110.44818 114.18327 110.53225 114.3 110.61237 L 114.3 110.25322 C 114.24294 110.21245 114.1859 110.1733 114.12895 110.13074 C 113.70395 109.81319 113.56456 109.7421 113.31143 109.7163 C 113.18907 109.7038 113.20111 109.72425 113.14865 109.43621 C 113.05425 108.91608 112.7551 108.36412 112.34818 107.95878 C 111.86715 107.47959 111.17316 107.10827 110.4992 106.96969 C 110.31719 106.93234 109.99832 106.91305 109.74369 106.91905 z M 109.71785 107.75983 C 110.00311 107.76045 110.18013 107.80752 110.23978 107.89832 C 110.27368 107.94982 110.26421 107.96129 110.16382 107.98979 C 109.95446 108.04919 109.72663 108.28941 109.72663 108.45074 C 109.72663 108.51294 109.73587 108.53505 109.77417 108.56495 C 109.80017 108.58545 109.82777 108.60215 109.83567 108.60215 C 109.84367 108.60215 109.87225 108.61037 109.89975 108.62127 C 109.93975 108.63657 109.94462 108.64353 109.92352 108.65693 C 109.86952 108.69103 109.759 108.67529 109.67444 108.62179 C 109.62904 108.59309 109.55934 108.56011 109.51941 108.54841 C 109.32294 108.49081 109.11503 108.66692 109.04554 108.94994 C 109.02034 109.05203 108.96837 109.15948 108.92823 109.19281 C 108.88483 109.22871 108.89358 109.33677 108.94528 109.41296 C 108.96998 109.44926 108.98973 109.48169 108.98973 109.48479 C 108.98973 109.48779 108.94974 109.49272 108.90084 109.49512 C 108.71922 109.50552 108.57669 109.5855 108.40372 109.77469 C 108.19907 109.99855 108.10011 110.21721 108.11433 110.41393 C 108.12593 110.57352 108.18369 110.68653 108.32465 110.82682 C 108.4251 110.92687 108.49171 110.97024 108.78044 111.1219 C 109.24356 111.36507 109.28422 111.41491 109.34009 111.81281 C 109.38889 112.16016 109.4554 112.31085 109.63568 112.48254 C 109.82279 112.66074 110.09335 112.75893 110.30593 112.72542 C 110.44763 112.70322 110.60982 112.615 110.70538 112.50889 C 110.85509 112.3427 110.9118 112.19149 111.08469 111.49913 C 111.17299 111.14525 111.24228 110.83174 111.24282 110.78083 C 111.24343 110.71653 111.23088 110.67078 111.20148 110.6227 C 111.17848 110.5855 111.16392 110.55132 111.16892 110.54622 C 111.18922 110.52602 111.345 110.58439 111.57613 110.6997 C 111.86941 110.84587 111.98562 110.88625 112.11615 110.88625 C 112.36716 110.88625 112.51875 110.7797 112.74092 110.44649 C 112.83712 110.30235 112.89956 110.22289 112.90318 110.24133 C 112.91218 110.28593 112.85623 110.63591 112.81533 110.79065 C 112.63938 111.45776 112.19329 112.05518 111.55029 112.48564 C 111.14603 112.75626 110.76917 112.89242 110.28577 112.94194 C 110.10652 112.96024 110.00239 112.96176 109.87029 112.94866 C 109.53307 112.91526 109.25986 112.84173 108.97474 112.70785 C 108.23767 112.36175 107.70934 111.69879 107.5433 110.91157 C 107.4475 110.45797 107.48667 109.83897 107.63787 109.41864 C 107.80189 108.96277 108.15823 108.47049 108.53239 108.18151 C 108.9243 107.87878 109.26125 107.75888 109.71785 107.75983 z M 109.7442 109.42743 C 109.7629 109.42743 109.81577 109.45966 109.86151 109.49926 C 110.01178 109.62912 110.10751 109.65358 110.2434 109.59692 L 110.31006 109.56954 L 110.25632 109.62535 C 110.18202 109.70285 110.10124 109.74957 109.99122 109.77883 C 109.8789 109.80873 109.83343 109.80886 109.72663 109.77986 C 109.68203 109.76776 109.55838 109.71388 109.4512 109.65997 C 109.25708 109.56247 109.25635 109.5622 109.31632 109.54732 C 109.34942 109.53932 109.45131 109.50884 109.54318 109.48014 C 109.63508 109.45134 109.72549 109.42794 109.7442 109.42794 L 109.7442 109.42743 z "/>
  </g>
</svg>